<?xml version="1.0" encoding="UTF-8"?><svg xmlns="http://www.w3.org/2000/svg" viewBox="0 0 195 81.05"><defs><style>.d{fill:#c0bfbf;}.e{fill:#3eb157;}</style></defs><g id="a"/><g id="b"><g id="c"><g><g><path class="d" d="M8.21,2.74H1.22c-.07,0-.14-.03-.22-.08-.08-.06-.12-.14-.12-.24V.86c0-.11,.04-.19,.12-.24,.07-.06,.15-.08,.22-.08H11.4c.1,0,.16,.04,.18,.12,.03,.08,.02,.15-.02,.2l-1.88,4.2c-.03,.07-.09,.13-.17,.21s-.18,.11-.27,.11h-1.91c-.1,0-.16-.04-.19-.12-.02-.08-.02-.15,.02-.2l1.05-2.31Zm-4.12,3.69c.02-.05,.04-.13,.06-.24s.04-.2,.04-.28l.02-.12V3.77c0-.07,.03-.13,.08-.21,.05-.07,.13-.11,.23-.11h1.83c.1,0,.18,.04,.23,.11,.05,.07,.08,.14,.08,.21v2.02c-.03,.31-.07,.53-.12,.64l-1.66,3.77c-.1,.21-.22,.32-.38,.32h-1.84c-.1,0-.17-.04-.22-.12-.04-.08-.05-.14-.03-.2l1.66-3.77Z"/><path class="d" d="M12.69,10.18V.36c0-.07,.03-.15,.09-.23,.06-.08,.14-.12,.24-.12h1.56c.1,0,.18,.04,.24,.12,.06,.08,.09,.16,.09,.23V2.58l5.18,2.31c.06,.03,.13,.09,.21,.17,.07,.08,.11,.18,.11,.27v1.91c0,.1-.04,.16-.12,.19-.08,.02-.14,.02-.2-.02l-5.18-2.3v5.08c0,.07-.03,.14-.08,.22-.05,.08-.13,.11-.24,.11h-1.56c-.11,0-.19-.04-.24-.11-.05-.08-.08-.15-.08-.22Z"/><path class="d" d="M31.54,.53c.07,0,.15,.03,.23,.09,.08,.06,.12,.14,.12,.24v1.56c0,.1-.04,.18-.12,.24-.08,.06-.16,.09-.23,.09h-2.91v5.57h3.67c.07,0,.15,.03,.23,.09,.08,.06,.12,.14,.12,.24v1.56c0,.1-.04,.18-.12,.24-.08,.06-.16,.09-.23,.09h-9.67c-.07,0-.14-.03-.22-.08s-.11-.14-.11-.24v-1.56c0-.11,.04-.19,.11-.24,.08-.05,.15-.08,.22-.08h3.54V2.74h-2.78c-.07,0-.14-.03-.22-.08-.07-.06-.11-.14-.11-.24V.86c0-.11,.04-.19,.11-.24,.08-.06,.15-.08,.22-.08h8.16Z"/><path class="d" d="M35.35,4.07c.02-.05,.04-.13,.06-.24,.02-.11,.04-.2,.04-.28l.02-.12V.92c0-.07,.03-.13,.08-.21,.05-.07,.13-.11,.23-.11h1.83c.1,0,.18,.04,.23,.11,.05,.07,.08,.14,.08,.21V3.43c-.03,.31-.07,.53-.12,.64l-1.53,6.13c-.03,.07-.07,.14-.14,.21-.07,.07-.15,.11-.24,.11h-1.84c-.1,0-.17-.04-.21-.11-.04-.08-.05-.14-.03-.2l1.53-6.13Zm9.09,4.74c0,.1-.04,.18-.11,.27-.07,.08-.14,.13-.21,.15l-4.78,1.6c-.06,.02-.11,.02-.17-.01s-.11-.09-.14-.18V.73c0-.07,.02-.14,.08-.23,.06-.08,.14-.13,.24-.13h1.56c.1,0,.18,.04,.24,.12,.06,.08,.09,.16,.09,.23V7.67l2.89-.96c.06-.02,.13-.02,.21,0,.07,.03,.11,.09,.11,.19v1.91Z"/></g><g><path class="d" d="M8.21,2.74H1.22c-.07,0-.14-.03-.22-.08-.08-.06-.12-.14-.12-.24V.86c0-.11,.04-.19,.12-.24,.07-.06,.15-.08,.22-.08H11.4c.1,0,.16,.04,.18,.12,.03,.08,.02,.15-.02,.2l-1.88,4.2c-.03,.07-.09,.13-.17,.21s-.18,.11-.27,.11h-1.91c-.1,0-.16-.04-.19-.12-.02-.08-.02-.15,.02-.2l1.05-2.31Zm-4.12,3.69c.02-.05,.04-.13,.06-.24s.04-.2,.04-.28l.02-.12V3.77c0-.07,.03-.13,.08-.21,.05-.07,.13-.11,.23-.11h1.83c.1,0,.18,.04,.23,.11,.05,.07,.08,.14,.08,.21v2.02c-.03,.31-.07,.53-.12,.64l-1.66,3.77c-.1,.21-.22,.32-.38,.32h-1.84c-.1,0-.17-.04-.22-.12-.04-.08-.05-.14-.03-.2l1.66-3.77Z"/><path class="d" d="M12.69,10.18V.36c0-.07,.03-.15,.09-.23,.06-.08,.14-.12,.24-.12h1.56c.1,0,.18,.04,.24,.12,.06,.08,.09,.16,.09,.23V2.58l5.18,2.31c.06,.03,.13,.09,.21,.17,.07,.08,.11,.18,.11,.27v1.91c0,.1-.04,.16-.12,.19-.08,.02-.14,.02-.2-.02l-5.18-2.3v5.08c0,.07-.03,.14-.08,.22-.05,.08-.13,.11-.24,.11h-1.56c-.11,0-.19-.04-.24-.11-.05-.08-.08-.15-.08-.22Z"/><path class="d" d="M31.54,.53c.07,0,.15,.03,.23,.09,.08,.06,.12,.14,.12,.24v1.56c0,.1-.04,.18-.12,.24-.08,.06-.16,.09-.23,.09h-2.91v5.57h3.67c.07,0,.15,.03,.23,.09,.08,.06,.12,.14,.12,.24v1.56c0,.1-.04,.18-.12,.24-.08,.06-.16,.09-.23,.09h-9.67c-.07,0-.14-.03-.22-.08s-.11-.14-.11-.24v-1.56c0-.11,.04-.19,.11-.24,.08-.05,.15-.08,.22-.08h3.54V2.74h-2.78c-.07,0-.14-.03-.22-.08-.07-.06-.11-.14-.11-.24V.86c0-.11,.04-.19,.11-.24,.08-.06,.15-.08,.22-.08h8.16Z"/><path class="d" d="M35.35,4.07c.02-.05,.04-.13,.06-.24,.02-.11,.04-.2,.04-.28l.02-.12V.92c0-.07,.03-.13,.08-.21,.05-.07,.13-.11,.23-.11h1.83c.1,0,.18,.04,.23,.11,.05,.07,.08,.14,.08,.21V3.43c-.03,.31-.07,.53-.12,.64l-1.53,6.13c-.03,.07-.07,.14-.14,.21-.07,.07-.15,.11-.24,.11h-1.84c-.1,0-.17-.04-.21-.11-.04-.08-.05-.14-.03-.2l1.53-6.13Zm9.09,4.74c0,.1-.04,.18-.11,.27-.07,.08-.14,.13-.21,.15l-4.78,1.6c-.06,.02-.11,.02-.17-.01s-.11-.09-.14-.18V.73c0-.07,.02-.14,.08-.23,.06-.08,.14-.13,.24-.13h1.56c.1,0,.18,.04,.24,.12,.06,.08,.09,.16,.09,.23V7.67l2.89-.96c.06-.02,.13-.02,.21,0,.07,.03,.11,.09,.11,.19v1.91Z"/></g><g><g><path class="e" d="M171.67,40.43h-10.54c-1.58,0-2.89-1.18-3.04-2.76-.06-.67-.14-1.68-.14-2.64,0-11.15,7.44-18.64,18.52-18.64s18.52,7.79,18.52,19.39-7.59,18.95-18.84,18.95c-.04,0-.12,0-.26,0-1.93,0-13.31-.42-16.76-10.28v-.03c-.44-1.26,.6-2.55,1.94-2.55h9.22l-.02,.05c1.29,1.25,3.23,2.45,5.96,2.45,2.96,0,4.78-1.26,5.67-3.94h-10.23Zm10.24-9.43c-.88-2.86-2.67-4.25-5.44-4.25s-4.66,1.39-5.52,4.25h10.96Z"/><path class="e" d="M135.8,43.44h6.07V5.08c0-1.65,1.34-2.99,2.99-2.99h6.18c1.65,0,2.99,1.34,2.99,2.99V51.12c0,1.65-1.34,2.99-2.99,2.99h-15.23c-1.65,0-2.99-1.34-2.99-2.99v-4.69c0-1.65,1.34-2.99,2.99-2.99Z"/></g><g><path class="e" d="M88.81,40.43h-9.71c.89,2.68,2.71,3.94,5.67,3.94,2.73,0,4.67-1.19,5.96-2.45l-.02-.05h9.22c1.33,0,2.37,1.29,1.94,2.55v.03c-3.46,9.85-14.84,10.28-16.77,10.28-.14,0-.22,0-.26,0-11.24,0-18.84-7.62-18.84-18.95s7.44-19.39,18.52-19.39,18.52,7.49,18.52,18.64c0,.96-.08,1.97-.14,2.64-.15,1.57-1.45,2.76-3.04,2.76h-11.05Zm1.23-9.43c-.86-2.86-2.67-4.25-5.52-4.25s-4.55,1.39-5.44,4.25h10.96Z"/><path class="e" d="M128.18,46.43v4.69c0,1.65-1.34,2.99-2.99,2.99h-15.23c-1.65,0-2.99-1.34-2.99-2.99V5.08c0-1.65,1.34-2.99,2.99-2.99h6.18c1.65,0,2.99,1.34,2.99,2.99V43.44h6.07c1.65,0,2.99,1.34,2.99,2.99Z"/></g><g><path class="e" d="M33.7,19.6v31.91c0,1.43-1.16,2.59-2.59,2.59h-6.68c-1.28,0-2.35-.92-2.56-2.15-2.39,1.78-5.37,2.77-8.48,2.77-7.88,0-13.38-5.02-13.38-12.21s6.45-12.51,16.04-12.51c1.74,0,3.62,.14,5.5,.4v-3.05H4.7c-1.43,0-2.59-1.16-2.59-2.6v-5.17c0-1.43,1.16-2.59,2.59-2.59H31.1c1.43,0,2.59,1.16,2.59,2.59Zm-16.6,19.9c-2.14,0-4.63,.74-4.63,2.84,0,.66,0,2.65,3.33,2.65,2.35,0,4.97-1.62,5.6-5.13-1.53-.23-3-.35-4.3-.35Z"/><path class="e" d="M63.88,19.74v5.14c0,1.51-1.23,2.73-2.74,2.73h-4.38v23.76c0,1.51-1.23,2.73-2.74,2.73h-6.68c-1.51,0-2.74-1.23-2.74-2.73V27.61h-4.26c-1.51,0-2.74-1.23-2.74-2.73v-5.14c0-1.51,1.23-2.73,2.74-2.73h4.26v-2.38c0-1.51,1.23-2.74,2.74-2.74h6.68c1.51,0,2.74,1.23,2.74,2.74v2.38h4.38c1.51,0,2.74,1.23,2.74,2.73Z"/></g><g><path class="e" d="M171.67,40.43h-10.54c-1.58,0-2.89-1.18-3.04-2.76-.06-.67-.14-1.68-.14-2.64,0-11.15,7.44-18.64,18.52-18.64s18.52,7.79,18.52,19.39-7.59,18.95-18.84,18.95c-.04,0-.12,0-.26,0-1.93,0-13.31-.42-16.76-10.28v-.03c-.44-1.26,.6-2.55,1.94-2.55h9.22l-.02,.05c1.29,1.25,3.23,2.45,5.96,2.45,2.96,0,4.78-1.26,5.67-3.94h-10.23Zm10.24-9.43c-.88-2.86-2.67-4.25-5.44-4.25s-4.66,1.39-5.52,4.25h10.96Z"/><path class="e" d="M135.8,43.44h6.07V5.08c0-1.65,1.34-2.99,2.99-2.99h6.18c1.65,0,2.99,1.34,2.99,2.99V51.12c0,1.65-1.34,2.99-2.99,2.99h-15.23c-1.65,0-2.99-1.34-2.99-2.99v-4.69c0-1.65,1.34-2.99,2.99-2.99Z"/></g><g><path class="e" d="M88.81,40.43h-9.71c.89,2.68,2.71,3.94,5.67,3.94,2.73,0,4.67-1.19,5.96-2.45l-.02-.05h9.22c1.33,0,2.37,1.29,1.94,2.55v.03c-3.46,9.85-14.84,10.28-16.77,10.28-.14,0-.22,0-.26,0-11.24,0-18.84-7.62-18.84-18.95s7.44-19.39,18.52-19.39,18.52,7.49,18.52,18.64c0,.96-.08,1.97-.14,2.64-.15,1.57-1.45,2.76-3.04,2.76h-11.05Zm1.23-9.43c-.86-2.86-2.67-4.25-5.52-4.25s-4.55,1.39-5.44,4.25h10.96Z"/><path class="e" d="M128.18,46.43v4.69c0,1.65-1.34,2.99-2.99,2.99h-15.23c-1.65,0-2.99-1.34-2.99-2.99V5.08c0-1.65,1.34-2.99,2.99-2.99h6.18c1.65,0,2.99,1.34,2.99,2.99V43.44h6.07c1.65,0,2.99,1.34,2.99,2.99Z"/></g><g><path class="e" d="M33.7,19.6v31.91c0,1.43-1.16,2.59-2.59,2.59h-6.68c-1.28,0-2.35-.92-2.56-2.15-2.39,1.78-5.37,2.77-8.48,2.77-7.88,0-13.38-5.02-13.38-12.21s6.45-12.51,16.04-12.51c1.74,0,3.62,.14,5.5,.4v-3.05H4.7c-1.43,0-2.59-1.16-2.59-2.6v-5.17c0-1.43,1.16-2.59,2.59-2.59H31.1c1.43,0,2.59,1.16,2.59,2.59Zm-16.6,19.9c-2.14,0-4.63,.74-4.63,2.84,0,.66,0,2.65,3.33,2.65,2.35,0,4.97-1.62,5.6-5.13-1.53-.23-3-.35-4.3-.35Z"/><path class="e" d="M63.88,19.74v5.14c0,1.51-1.23,2.73-2.74,2.73h-4.38v23.76c0,1.51-1.23,2.73-2.74,2.73h-6.68c-1.51,0-2.74-1.23-2.74-2.73V27.61h-4.26c-1.51,0-2.74-1.23-2.74-2.73v-5.14c0-1.51,1.23-2.73,2.74-2.73h4.26v-2.38c0-1.51,1.23-2.74,2.74-2.74h6.68c1.51,0,2.74,1.23,2.74,2.74v2.38h4.38c1.51,0,2.74,1.23,2.74,2.73Z"/></g></g><g><path class="e" d="M2.91,80.75l.96-11.08h3.98l-.96,11.08H2.91Zm.33,0l.1-1.15H15.9l-.09,1.15H3.24Z"/><path class="e" d="M18.54,80.75l.55-6.51h3.98l-.56,6.51h-3.98Zm.78-9.26l.15-1.84h3.98l-.15,1.84h-3.98Z"/><path class="e" d="M24.78,80.75l.57-6.51h3.98l-.57,6.51h-3.98Zm.63-5.36l.09-1.15h12.69l-.1,1.15h-12.69Zm8.32,5.36l.57-6.51h3.98l-.57,6.51h-3.98Z"/><path class="e" d="M40.09,80.75l.57-6.51h3.98l-.57,6.51h-3.98Zm0,0l.12-1.15h12.69l-.1,1.15h-12.71Zm.34-2.85l.1-1.15h12.69l-.1,1.15h-12.69Zm.29-2.51l.09-1.15h12.69l-.1,1.15h-12.69Zm8.57,2.51l.31-3.65h3.98l-.31,3.65h-3.98Z"/><path class="e" d="M61.46,71.68l.1-1.13h13.81l-.1,1.13h.21l-7.94,7.86,8.86,.38-.1,1.13-13.66-.59,.1-1.13,7.77-7.65h-9.05Zm15.27,0h-.82l.15-1.88h.84l-.17,1.88Zm1.42,0h-.82l.17-1.88h.82l-.17,1.88Z"/><path class="e" d="M80.67,72.16l.1-1.15h1.38l.13-1.44h3.21l-.13,1.44h.61l-.09,1.15h-.61l-.29,3.31,.63-.1-.1,1.15-.63,.1-.4,4.44h-3.98l.1-1.15h.77l.25-2.81-1.38,.19,.1-1.15,1.4-.21,.33-3.77h-1.38Zm5.15,4.31l.1-1.15h4.02l.04-.54h3.52l-.04,.54h4.09l-.1,1.15h-4.11v.02l3.9,2.81-.15,1.76-3.9-2.81-.25,2.81h-3.52l.25-2.72-4.21,2.72,.15-1.76,4.21-2.72v-.11h-4Zm.46-5.43l.1-1.15,11.71-.31-.1,1.15-11.71,.31Zm.34,3.33l-.08-3.02h2.76l.08,3.02h-2.75Zm3.75,0l-.08-3.02h2.76l.08,3.02h-2.75Zm3.75,0l.61-3.02h2.75l-.61,3.02h-2.75Z"/><path class="e" d="M99.69,81.05l1.24-11.33h16.42l-1.01,11.33h-3.71l.34-3.75h-2.72l-.34,3.75h-3.64l.34-3.75h-2.87l-.42,3.75h-3.64Zm4.17-4.9h2.85l.19-2.07h-2.81l-.23,2.07Zm.36-3.21h2.77l.19-2.07h-2.75l-.21,2.07Zm9.03,1.15h-2.72l-.19,2.07h2.72l.19-2.07Zm.29-3.21h-2.72l-.19,2.07h2.72l.19-2.07Z"/></g></g></g></g></svg>