<svg xmlns="http://www.w3.org/2000/svg" xmlns:xlink="http://www.w3.org/1999/xlink" width="136.482" height="151.404" viewBox="0 0 136.482 151.404">
  <defs>
    <clipPath id="clip-path">
      <rect id="長方形_18115" data-name="長方形 18115" width="136.482" height="151.404" fill="#707070"/>
    </clipPath>
  </defs>
  <g id="グループ_12714" data-name="グループ 12714" transform="translate(-2)">
    <g id="グループ_12713" data-name="グループ 12713" transform="translate(2)" clip-path="url(#clip-path)">
      <path id="パス_12165" data-name="パス 12165" d="M33.933,32.566H72.082a8.176,8.176,0,0,0,8.177-8.179V16.2a8.176,8.176,0,0,0-8.177-8.181H61.744a8.772,8.772,0,0,0-17.478,0H33.933A8.18,8.18,0,0,0,25.751,16.2v8.191a8.18,8.18,0,0,0,8.182,8.179M53.007,4.809A4.007,4.007,0,1,1,49,8.816a4.007,4.007,0,0,1,4.011-4.006" transform="translate(4.708)" fill="#707070"/>
      <path id="パス_12166" data-name="パス 12166" d="M113.715,40.249a.532.532,0,0,1,.057.071.363.363,0,0,1,.056.044Z" transform="translate(20.792 7.359)" fill="#707070"/>
      <path id="パス_12167" data-name="パス 12167" d="M116.159,40.608a6.746,6.746,0,0,0-9.5.045l-6.012,6.011,9.441,9.441,6.011-6.012a6.751,6.751,0,0,0,.057-9.485" transform="translate(18.403 7.072)" fill="#707070"/>
      <path id="パス_12168" data-name="パス 12168" d="M65.945,105.55,86.434,85.064,74.2,72.829,53.71,93.319a3.158,3.158,0,0,0,0,4.455l7.778,7.776a3.15,3.15,0,0,0,4.457,0" transform="translate(9.653 13.316)" fill="#707070"/>
      <path id="パス_12169" data-name="パス 12169" d="M48.661,106.335l-2.836,2.841,1.635,1.637,2.841-2.839,12.179-3.989-9.831-9.828Z" transform="translate(8.379 17.216)" fill="#707070"/>
      <path id="パス_12170" data-name="パス 12170" d="M91.978,27.215V54.8l9.619-9.619v-17.4A13.635,13.635,0,0,0,87.963,14.146H75.943V21.8a13.017,13.017,0,0,1-.282,2.689H89.25a2.727,2.727,0,0,1,2.729,2.726" transform="translate(13.834 2.587)" fill="#707070"/>
      <path id="パス_12171" data-name="パス 12171" d="M105.813,132.625a2.727,2.727,0,0,1-2.729,2.726H12.343a2.726,2.726,0,0,1-2.724-2.726V27.215a2.726,2.726,0,0,1,2.724-2.726H25.936A13.017,13.017,0,0,1,25.65,21.8V14.146H13.63A13.631,13.631,0,0,0,0,27.779v107.4a13.632,13.632,0,0,0,13.63,13.633H101.8a13.635,13.635,0,0,0,13.635-13.633V83.246l-9.619,9.619Z" transform="translate(0 2.587)" fill="#707070"/>
      <path id="パス_12172" data-name="パス 12172" d="M72.735,75.6,84.97,87.829l29.849-29.851L102.589,45.747ZM105.5,55.063a2.7,2.7,0,0,1,0,3.823L90.978,73.411a2.7,2.7,0,0,1-3.823-3.823l14.528-14.525a2.7,2.7,0,0,1,3.818,0" transform="translate(13.299 8.365)" fill="#707070"/>
      <path id="パス_12173" data-name="パス 12173" d="M16.964,46.7l9.657,9.661,3.513-3.513L39.8,43.186l-3.514-3.511L26.62,49.335l-6.144-6.148Z" transform="translate(3.102 7.255)" fill="#707070"/>
      <path id="パス_12174" data-name="パス 12174" d="M36.282,61.023l-9.661,9.659-6.144-6.148-3.513,3.514,9.657,9.661L30.134,74.2,39.8,64.533Z" transform="translate(3.102 11.158)" fill="#707070"/>
      <path id="パス_12175" data-name="パス 12175" d="M20.477,85.881l-3.513,3.513,9.657,9.661,3.513-3.513L39.8,85.881l-3.513-3.511L26.621,92.03Z" transform="translate(3.102 15.061)" fill="#707070"/>
    </g>
  </g>
</svg>
