<svg id="Icon" xmlns="http://www.w3.org/2000/svg" width="12.943" height="16.75" viewBox="0 0 12.943 16.75">
  <path id="Vector" d="M7,.2A.793.793,0,0,0,6.471,0H.809A.8.8,0,0,0,.237.245.853.853,0,0,0,0,.837V15.912a.853.853,0,0,0,.237.592.8.8,0,0,0,.572.245H12.134a.8.8,0,0,0,.572-.245.853.853,0,0,0,.237-.592V5.862a.862.862,0,0,0-.074-.35.835.835,0,0,0-.209-.286ZM7.28,2.655,9.95,5.025H7.28Zm4.045,12.42H1.618V1.675H5.662V5.862a.853.853,0,0,0,.237.592.8.8,0,0,0,.572.245h4.854Z" transform="translate(0 0)" fill="#464255"/>
</svg>
