<svg xmlns="http://www.w3.org/2000/svg" width="15.001" height="15" viewBox="0 0 15.001 15">
  <g id="Layer_2" data-name="Layer 2" transform="translate(-3.097 -3.097)">
    <path id="Vector" d="M3.009,0A3.012,3.012,0,1,0,5.135.882,3.009,3.009,0,0,0,3.009,0Zm0,4.814a1.807,1.807,0,1,1,1.276-.529,1.805,1.805,0,0,1-1.276.529Z" transform="translate(7.586 7.586)" fill="#464255"/>
    <path id="Vector-2" data-name="Vector" d="M1.645,3.757A1.217,1.217,0,0,0,.717,6.006a1.62,1.62,0,0,1,0,2.984,1.217,1.217,0,0,0,.928,2.249,1.62,1.62,0,0,1,2.111,2.112,1.206,1.206,0,0,0,.68,1.556A1.222,1.222,0,0,0,4.9,15a1.189,1.189,0,0,0,1.1-.721,1.62,1.62,0,0,1,2.984,0,1.217,1.217,0,0,0,2.249-.928,1.62,1.62,0,0,1,2.112-2.111,1.2,1.2,0,0,0,1.552-.67l-.552-.24-.548-.205a2.817,2.817,0,0,0-3.06.619,2.885,2.885,0,0,0-.643,3.07,2.814,2.814,0,0,0-2.6-1.727A2.881,2.881,0,0,0,4.872,13.8a2.818,2.818,0,0,0-.619-3.06,2.885,2.885,0,0,0-3.07-.643A2.814,2.814,0,0,0,2.91,7.5,2.881,2.881,0,0,0,1.193,4.872a2.817,2.817,0,0,0,3.06-.619A2.885,2.885,0,0,0,4.9,1.183,2.814,2.814,0,0,0,7.5,2.91a2.881,2.881,0,0,0,2.626-1.717,2.818,2.818,0,0,0,.619,3.06,2.887,2.887,0,0,0,3.07.643,2.818,2.818,0,0,0-.019,5.188.024.024,0,0,1,0,.015l.556.229.553.237,0-.008a1.2,1.2,0,0,0-.628-1.568,1.62,1.62,0,0,1,0-2.984,1.217,1.217,0,0,0-.928-2.249A1.62,1.62,0,0,1,11.24,1.646,1.217,1.217,0,0,0,8.99.717a1.62,1.62,0,0,1-2.984,0,1.217,1.217,0,0,0-2.249.928A1.62,1.62,0,0,1,1.646,3.757Z" transform="translate(3.097 3.097)" fill="#464255"/>
  </g>
</svg>
