<svg id="Icon" xmlns="http://www.w3.org/2000/svg" width="16.667" height="15" viewBox="0 0 16.667 15">
  <g id="Layer_2_1" data-name="Layer 2 1" transform="translate(-1.667 -2.5)">
    <g id="Layer_1_2" data-name="Layer 1 2">
      <g id="format_align_left" data-name="format align left">
        <path id="Vector" d="M15.833,1.667h-15A.818.818,0,0,1,0,.833.818.818,0,0,1,.833,0h15a.818.818,0,0,1,.833.833A.818.818,0,0,1,15.833,1.667Z" transform="translate(1.667 2.5)" fill="#464255"/>
        <path id="Vector-2" data-name="Vector" d="M10.833,1.667h-10A.818.818,0,0,1,0,.833.818.818,0,0,1,.833,0h10a.818.818,0,0,1,.833.833A.818.818,0,0,1,10.833,1.667Z" transform="translate(1.667 6.944)" fill="#464255"/>
        <path id="Vector-3" data-name="Vector" d="M15.833,1.667h-15A.818.818,0,0,1,0,.833.818.818,0,0,1,.833,0h15a.818.818,0,0,1,.833.833A.818.818,0,0,1,15.833,1.667Z" transform="translate(1.667 11.389)" fill="#464255"/>
        <path id="Vector-4" data-name="Vector" d="M10.833,1.667h-10A.818.818,0,0,1,0,.833.818.818,0,0,1,.833,0h10a.818.818,0,0,1,.833.833A.818.818,0,0,1,10.833,1.667Z" transform="translate(1.667 15.833)" fill="#464255"/>
      </g>
    </g>
  </g>
</svg>
