<svg xmlns="http://www.w3.org/2000/svg" width="17.359" height="17.363" viewBox="0 0 17.359 17.363">
  <path id="Icon_awesome-wpforms" data-name="Icon awesome-wpforms" d="M17.359,3.924V17.939a1.655,1.655,0,0,1-1.674,1.674H1.674A1.661,1.661,0,0,1,0,17.935V3.924A1.655,1.655,0,0,1,1.674,2.25H15.689A1.654,1.654,0,0,1,17.359,3.924ZM15.914,17.935V3.924a.23.23,0,0,0-.225-.225h-.36L11.055,6.59,8.68,4.656,6.308,6.59,2.034,3.7h-.36a.23.23,0,0,0-.225.225V17.935a.23.23,0,0,0,.225.225H15.689a.225.225,0,0,0,.225-.225ZM5.82,8.217V9.651H2.972V8.217Zm0,2.883v1.445H2.972V11.1Zm.43-5.708L8.343,3.7H3.751l2.5,1.693Zm8.137,2.825V9.651H6.793V8.217Zm0,2.883v1.445H6.793V11.1ZM11.109,5.393l2.5-1.693H9.021Zm3.278,8.6v1.445H10.536V13.991h3.852Z" transform="translate(0 -2.25)" fill="#464255"/>
</svg>
