<svg id="Icon" xmlns="http://www.w3.org/2000/svg" width="16.667" height="16.861" viewBox="0 0 16.667 16.861">
  <path id="Vector" d="M14.325,12.1a2.817,2.817,0,0,0-.179-3.851,2.937,2.937,0,0,0-2.062-.843H11.85a4.453,4.453,0,0,0,.509-5.05A4.546,4.546,0,0,0,10.811.718a4.638,4.638,0,0,0-4.392-.3A4.572,4.572,0,0,0,4.654,1.825a4.481,4.481,0,0,0,.7,6.134,8.316,8.316,0,0,0-3.887,3.013A8.141,8.141,0,0,0,0,15.628a.816.816,0,0,0,.244.581.842.842,0,0,0,1.179,0,.816.816,0,0,0,.244-.581,6.53,6.53,0,0,1,1.953-4.649A6.714,6.714,0,0,1,8.333,9.053H9.458A2.772,2.772,0,0,0,9.842,12.1a4.546,4.546,0,0,0-1.713,1.655A4.465,4.465,0,0,0,7.5,16.039a.816.816,0,0,0,.244.581.842.842,0,0,0,1.179,0,.816.816,0,0,0,.244-.581A2.857,2.857,0,0,1,10.021,14a2.945,2.945,0,0,1,4.125,0A2.857,2.857,0,0,1,15,16.039a.816.816,0,0,0,.244.581.842.842,0,0,0,1.179,0,.816.816,0,0,0,.244-.581,4.465,4.465,0,0,0-.629-2.282A4.546,4.546,0,0,0,14.325,12.1ZM8.333,7.409a2.946,2.946,0,0,1-1.62-.485A2.886,2.886,0,0,1,5.639,5.633,2.848,2.848,0,0,1,6.271,2.5a2.939,2.939,0,0,1,4.488.436A2.847,2.847,0,0,1,10.4,6.566a2.937,2.937,0,0,1-2.062.843Zm3.75,4.11a1.259,1.259,0,0,1-.884-.361,1.215,1.215,0,0,1,0-1.741,1.256,1.256,0,0,1,1.765,0,1.221,1.221,0,0,1,0,1.744A1.259,1.259,0,0,1,12.083,11.518Z" transform="translate(0 0)" fill="#464255"/>
</svg>
