<svg id="Icon" xmlns="http://www.w3.org/2000/svg" width="16.672" height="16.67" viewBox="0 0 16.672 16.67">
  <path id="Vector" d="M.833,15H4.167a.833.833,0,0,0,.592-.242l10-10a.833.833,0,0,0,0-1.183L11.425.246a.833.833,0,0,0-1.183,0l-10,10A.833.833,0,0,0,0,10.838v3.333A.833.833,0,0,0,.833,15Zm.833-3.825,9.167-9.167,2.158,2.158L3.825,13.338H1.667Z" transform="translate(0 1.665)" fill="#464255"/>
  <path id="Vector-2" data-name="Vector" d="M1.428.245A.837.837,0,0,0,.245,1.428L3.578,4.762A.837.837,0,1,0,4.762,3.578Z" transform="translate(11.663)" fill="#464255"/>
</svg>
