<svg id="_066-attachment" data-name="066-attachment" xmlns="http://www.w3.org/2000/svg" width="20.776" height="20.485" viewBox="0 0 20.776 20.485">
  <path id="Vector" d="M18.992,8.566,10.7,16.852a5.117,5.117,0,0,1-7.065.283,4.947,4.947,0,0,1-.1-7.1l7.058-7.058A2.953,2.953,0,0,1,14.77,7.151L7.712,14.209a.98.98,0,0,1-1.349,0,.96.96,0,0,1,0-1.349l5.643-5.643a1.042,1.042,0,0,0-1.478-1.47L4.884,11.388a3.038,3.038,0,0,0,0,4.29,3.106,3.106,0,0,0,4.289,0l7.058-7.058A5.029,5.029,0,1,0,9.116,1.512L2.058,8.57a7.022,7.022,0,0,0,.154,10.081,6.858,6.858,0,0,0,4.735,1.834,7.392,7.392,0,0,0,5.226-2.166l8.287-8.287a1.038,1.038,0,1,0-1.468-1.468Z" transform="translate(0 0)" fill="#a3a3a3"/>
</svg>
