<svg id="_060-image" data-name="060-image" xmlns="http://www.w3.org/2000/svg" width="18.683" height="20.759" viewBox="0 0 18.683 20.759">
  <path id="Vector" d="M15.569,20.759a3.114,3.114,0,0,0,3.114-3.114V3.114A3.114,3.114,0,0,0,15.569,0H3.114A3.114,3.114,0,0,0,0,3.114V17.645a3.114,3.114,0,0,0,3.114,3.114ZM2.076,3.114A1.038,1.038,0,0,1,3.114,2.076H15.569a1.038,1.038,0,0,1,1.038,1.038v6.84L14.23,7.567a1.038,1.038,0,0,0-1.474,0L8.3,12.03,5.927,9.642a1.038,1.038,0,0,0-1.474,0L2.076,12.03Zm0,14.531V14.957L5.19,11.843,7.567,14.23a1.038,1.038,0,0,0,1.474,0l4.453-4.463,3.114,3.114v4.764a1.038,1.038,0,0,1-1.038,1.038H3.114a1.038,1.038,0,0,1-1.038-1.038Z" transform="translate(0 0)" fill="#a3a3a3"/>
</svg>
