<svg id="Icon" xmlns="http://www.w3.org/2000/svg" width="10.915" height="17.218" viewBox="0 0 10.915 17.218">
  <g id="Layer_2" data-name="Layer 2">
    <path id="Vector" d="M10.574,5.937,6.317.458A1.1,1.1,0,0,0,5.457,0,1.1,1.1,0,0,0,4.6.458L.341,5.937A1.9,1.9,0,0,0,.356,8.131a1.1,1.1,0,0,0,.849.458,1.09,1.09,0,0,0,.855-.439l2.18-2.807V15.653A1.818,1.818,0,0,0,4.6,16.759a1.1,1.1,0,0,0,.86.458,1.1,1.1,0,0,0,.86-.458,1.818,1.818,0,0,0,.356-1.107V5.344L8.854,8.15a1.09,1.09,0,0,0,.855.439,1.1,1.1,0,0,0,.849-.458,1.9,1.9,0,0,0,.015-2.194Z" transform="translate(0 0)" fill="#707070"/>
  </g>
</svg>