<svg xmlns="http://www.w3.org/2000/svg" width="10.224" height="17.219" viewBox="0 0 10.224 17.219">
  <g id="Icon" transform="translate(10.224 17.219) rotate(180)">
    <g id="Layer_2" data-name="Layer 2">
      <path id="Vector" d="M9.9,5.937,5.917.458A1.011,1.011,0,0,0,5.112,0a1.011,1.011,0,0,0-.805.458L.32,5.937A2.006,2.006,0,0,0,.334,8.131a1.014,1.014,0,0,0,.8.458,1,1,0,0,0,.8-.439L3.973,5.344V15.653a1.9,1.9,0,0,0,.334,1.107,1.011,1.011,0,0,0,.805.458,1.011,1.011,0,0,0,.805-.458,1.9,1.9,0,0,0,.334-1.107V5.344L8.293,8.151a1,1,0,0,0,.8.439,1.014,1.014,0,0,0,.8-.458A2.006,2.006,0,0,0,9.9,5.937Z" transform="translate(0 0)" fill="#707070"/>
    </g>
  </g>
</svg>