<svg xmlns="http://www.w3.org/2000/svg" width="12.637" height="12.64" viewBox="0 0 12.637 12.64">
  <g id="search" fill="none">
    <path d="M12.528,12,9.456,8.924a5.394,5.394,0,1,0-.532.532L12,12.528a.381.381,0,0,0,.266.112.369.369,0,0,0,.266-.112A.379.379,0,0,0,12.528,12ZM.754,5.389a4.633,4.633,0,1,1,4.633,4.636A4.638,4.638,0,0,1,.754,5.389Z" stroke="none"/>
    <path d="M 12.26141834259033 12.63976287841797 C 12.16612815856934 12.63976287841797 12.06802845001221 12.60053253173828 11.99516868591309 12.527663230896 L 8.923508644104004 9.456003189086914 C 7.976228713989258 10.27997303009033 6.740278720855713 10.77883243560791 5.389418601989746 10.77883243560791 C 2.418648481369019 10.77883243560791 -1.467895458517887e-06 8.360182762145996 -1.467895458517887e-06 5.389412879943848 C -1.467895458517887e-06 2.418652772903442 2.41584849357605 2.869720447051805e-06 5.389418601989746 2.869720447051805e-06 C 8.36017894744873 2.869720447051805e-06 10.77883815765381 2.415852785110474 10.77883815765381 5.389412879943848 C 10.77883815765381 6.740272998809814 10.27996826171875 7.976222991943359 9.455998420715332 8.923502922058105 L 12.52765846252441 11.99516296386719 C 12.67339897155762 12.14090251922607 12.67339897155762 12.38192272186279 12.52765846252441 12.527663230896 C 12.45478820800781 12.60333251953125 12.35669898986816 12.63976287841797 12.26141834259033 12.63976287841797 Z M 5.386608600616455 0.7567028403282166 C 2.833438634872437 0.7567028403282166 0.753898561000824 2.833432912826538 0.753898561000824 5.389412879943848 C 0.753898561000824 7.945393085479736 2.833438634872437 10.02493286132812 5.386608600616455 10.02493286132812 C 7.942588329315186 10.02493286132812 10.01932811737061 7.942593097686768 10.01932811737061 5.389412879943848 C 10.01932811737061 2.836242914199829 7.942588329315186 0.7567028403282166 5.386608600616455 0.7567028403282166 Z" stroke="none" fill="#fff"/>
  </g>
</svg>
