<svg id="Icon_-_Search" data-name="Icon - Search" xmlns="http://www.w3.org/2000/svg" width="10.08" height="10.08" viewBox="0 0 10.08 10.08">
  <rect id="長方形_693" data-name="長方形 693" width="10.08" height="10.08" fill="none"/>
  <path id="パス_208" data-name="パス 208" d="M10.017,9.135,7.938,7.056A4.314,4.314,0,0,0,8.82,4.41,4.383,4.383,0,0,0,4.41,0,4.383,4.383,0,0,0,0,4.41,4.383,4.383,0,0,0,4.41,8.82a4.314,4.314,0,0,0,2.646-.882l2.079,2.079ZM1.26,4.41A3.119,3.119,0,0,1,4.41,1.26,3.119,3.119,0,0,1,7.56,4.41,3.119,3.119,0,0,1,4.41,7.56,3.119,3.119,0,0,1,1.26,4.41Z" fill="#fff"/>
</svg>
